<?xml version="1.0" encoding="UTF-8"?><svg id="a" xmlns="http://www.w3.org/2000/svg" viewBox="0 0 3601.24 255.07"><g id="c"><g id="d"><path d="M1411.85,189.44c-3.81-3.05-5.34-5.85-5.6-9.67-.76-6.87-1.27-16.53-1.02-24.42.25-4.07,2.03-6.1,4.83-6.1,2.54,0,4.58,1.78,5.34,4.83,5.85,27.47,21.62,36.37,42.98,36.37s38.15-13.73,38.15-33.06c0-42.22-86.22-36.37-86.22-90.04,0-27.72,22.64-48.33,56.72-48.33,11.7,0,26.45,2.54,37.9,9.67,4.07,2.29,5.34,4.58,5.6,7.63.25,6.1.51,13.48.25,20.6,0,3.31-1.53,5.6-4.58,5.6-2.8,0-4.32-1.78-5.6-6.1-5.85-17.3-18.06-25.44-35.35-25.44-19.08,0-33.57,10.94-33.57,28.74,0,42.48,86.99,36.63,86.99,90.29,0,28.74-22.64,52.65-61.81,52.65-18.31,0-33.32-5.09-45.02-13.23Z" style="fill:#002676;"/><path d="M1531.9,142.38c0-37.9,25.94-65.88,57.74-65.88,25.94,0,40.19,15.01,40.19,26.71,0,7.12-4.83,10.68-10.68,10.68-4.83,0-10.43-3.56-12.97-12.72-2.8-9.67-8.14-13.23-18.06-13.23-18.31,0-35.1,16.28-35.1,48.58,0,27.47,14.75,49.6,38.92,49.6,11.7,0,21.37-4.58,31.79-13.23,1.53-1.27,2.54-1.78,3.82-1.78,3.31,0,5.09,4.07,2.29,7.88-11.45,14.75-26.71,23.65-45.53,23.65-29.76,0-52.4-24.42-52.4-60.28Z" style="fill:#002676;"/><path d="M1636.94,195.8c0-2.54,1.53-4.58,5.6-5.09,11.96-1.78,12.72-2.8,12.97-8.9.25-24.67.25-47.82.25-70.96,0-21.87,0-47.31-.25-73.25-.25-6.1-1.53-7.38-14.5-9.67-4.32-.76-5.85-2.54-5.85-5.09,0-2.29,1.53-4.07,5.6-4.32,8.65-.76,20.09-2.8,31.29-6.1,2.8-.76,4.83.51,4.83,3.56-.51,39.17-.76,62.82-.76,81.65,11.95-12.72,26.45-21.37,41.21-21.37,19.58,0,33.83,13.23,33.07,37.9-.25,10.17-.25,17.3-.25,25.18,0,16.79,0,28.74.25,42.48.25,6.1,1.02,7.12,12.97,8.9,4.07.51,5.6,2.54,5.6,5.09,0,2.29-1.78,4.32-5.09,4.32-7.38,0-15.26-.76-23.91-.76s-16.28.76-23.65.76c-3.31,0-5.09-2.03-5.09-4.32,0-2.54,1.53-4.58,5.6-5.09,11.45-1.78,12.21-2.8,12.46-8.9.51-13.73.51-25.69.51-42.48,0-7.63,0-14.5-.25-24.16-.51-13.23-6.1-23.15-22.38-23.15-10.43,0-22.38,7.12-31.03,16.02v2.8c0,25.18,0,47.31.51,70.96,0,6.1.76,7.12,12.46,8.9,4.07.51,5.34,2.54,5.34,5.09,0,2.29-1.53,4.32-4.83,4.32-7.38,0-15.26-.76-23.65-.76s-16.79.76-23.91.76c-3.31,0-5.09-2.03-5.09-4.32Z" style="fill:#002676;"/><path d="M1775.56,140.09c0-37.39,24.93-63.84,56.97-63.84s55.96,25.43,55.96,62.57-25.18,63.84-56.97,63.84-55.96-25.18-55.96-62.57ZM1867.13,144.16c0-36.37-17.55-55.96-37.14-55.96s-33.07,18.57-33.07,46.29c0,36.37,17.55,55.96,36.88,55.96s33.32-18.57,33.32-46.29Z" style="fill:#002676;"/><path d="M1901.72,140.09c0-37.39,24.93-63.84,56.97-63.84s55.96,25.43,55.96,62.57-25.18,63.84-56.97,63.84-55.96-25.18-55.96-62.57ZM1993.28,144.16c0-36.37-17.55-55.96-37.14-55.96s-33.07,18.57-33.07,46.29c0,36.37,17.55,55.96,36.88,55.96s33.32-18.57,33.32-46.29Z" style="fill:#002676;"/><path d="M2022.28,195.8c0-2.54,1.53-4.32,5.6-5.09,11.7-1.78,12.72-2.8,12.72-8.9.51-24.93.51-48.33.51-70.96s0-47.31-.25-73.25c-.25-6.1-1.53-7.38-14.5-9.67-4.32-.76-5.85-2.54-5.85-5.09,0-2.29,1.53-4.07,5.6-4.32,8.65-.76,20.09-2.8,31.29-6.1,2.8-.76,4.83.51,4.83,3.56-.76,49.09-.76,74.02-.76,94.87,0,22.64,0,46.04.51,70.96,0,6.1,1.02,7.12,12.72,8.9,4.07.76,5.59,2.54,5.59,5.09,0,2.29-1.78,4.32-5.09,4.32-7.12,0-15.26-.76-23.91-.76s-16.79.76-23.91.76c-3.31,0-5.09-2.03-5.09-4.32Z" style="fill:#002676;"/><path d="M2131.89,140.09c0-37.39,24.93-63.84,56.97-63.84s55.96,25.43,55.96,62.57-25.18,63.84-56.97,63.84-55.96-25.18-55.96-62.57ZM2223.46,144.16c0-36.37-17.55-55.96-37.14-55.96s-33.07,18.57-33.07,46.29c0,36.37,17.55,55.96,36.88,55.96s33.32-18.57,33.32-46.29Z" style="fill:#002676;"/><path d="M2253.47,195.8c0-2.54,1.53-4.32,5.6-5.09,11.7-1.78,12.46-2.8,12.72-8.9.51-24.93.51-48.33.51-70.96v-19.33c-5.09,0-10.17,0-15.01.25-4.32.25-6.87-2.8-6.87-6.36,0-3.81,2.54-6.61,6.87-6.61,4.83.25,9.67.51,14.75.51,0-5.34-.25-10.17-.25-14.24-.51-36.12,15.77-58.75,48.07-58.75,18.06,0,31.03,9.16,31.03,19.08,0,5.6-3.56,9.92-9.67,9.92-11.7,0-9.92-16.02-25.94-16.02s-23.4,16.79-23.4,38.66c0,5.85.25,13.48.25,21.37,7.63,0,15.01,0,21.87-.51,4.58-.25,6.87,2.8,6.87,6.61,0,3.56-2.29,6.61-6.87,6.36-6.87-.25-13.99-.25-21.62-.25.25,6.87.25,13.48.25,19.33,0,22.64,0,46.04.25,70.96.25,6.1,1.27,7.38,16.53,8.9,5.09.51,6.61,2.54,6.61,5.09,0,2.29-1.78,4.32-5.09,4.32-7.38,0-19.84-.76-28.49-.76s-16.79.76-23.91.76c-3.56,0-5.09-2.03-5.09-4.32Z" style="fill:#002676;"/><path d="M2370.72,195.29c0-2.54,1.53-4.83,5.85-5.34,15.01-1.27,17.8-3.31,17.8-9.16.25-23.4.25-44,.25-69.95s0-46.55-.25-69.95c0-5.85-2.8-7.89-17.8-9.16-4.32-.51-5.85-2.8-5.85-5.34,0-2.8,2.04-4.83,5.6-4.83,9.16,0,18.31.76,29.25.76s20.09-.76,29.25-.76c3.56,0,5.34,2.03,5.34,4.83,0,2.54-1.53,4.83-5.85,5.34-14.75,1.27-17.55,3.31-17.55,9.16-.51,23.4-.51,44-.51,69.95s0,46.55.51,69.95c0,5.85,2.8,7.88,17.55,9.16,4.32.51,5.85,2.8,5.85,5.34,0,2.8-1.78,4.83-5.34,4.83-9.16,0-18.31-.76-29.25-.76s-20.09.76-29.25.76c-3.56,0-5.6-2.03-5.6-4.83Z" style="fill:#002676;"/><path d="M2449.57,195.8c0-2.54,1.53-4.58,5.6-5.09,11.7-1.78,12.46-2.8,12.72-8.9.51-13.73.51-25.69.51-42.48,0-13.73-.25-26.2-.51-38.92-.25-6.1-1.27-7.12-14.24-9.41-4.58-.76-5.85-2.8-5.85-5.09,0-2.54,1.53-4.07,5.34-4.58,8.9-.51,20.09-2.8,31.29-5.85,2.8-.76,4.83.51,4.83,3.56,0,6.61-.25,12.72-.25,18.31,11.95-12.72,26.2-21.11,40.7-21.11,19.58,0,33.83,13.23,33.32,37.9-.25,10.17-.25,17.3-.25,25.18,0,16.79,0,28.74.25,42.48.25,6.1,1.02,7.12,12.72,8.9,4.32.51,5.85,2.54,5.85,5.09,0,2.29-1.78,4.32-5.09,4.32-7.38,0-15.52-.76-23.91-.76s-16.53.76-23.65.76c-3.31,0-5.09-2.03-5.09-4.32,0-2.54,1.53-4.58,5.34-5.09,11.7-1.78,12.46-2.8,12.72-8.9.25-13.73.25-25.69.25-42.48,0-7.63,0-14.5-.25-24.16-.25-13.23-5.85-23.15-22.13-23.15-10.43,0-22.13,6.87-31.03,15.77v31.54c0,16.79,0,28.74.25,42.48.25,6.1,1.02,7.12,12.72,8.9,3.82.51,5.34,2.54,5.34,5.09,0,2.29-1.53,4.32-5.09,4.32-7.12,0-15.01-.76-23.4-.76s-16.79.76-23.91.76c-3.56,0-5.09-2.03-5.09-4.32Z" style="fill:#002676;"/><path d="M2587.93,195.8c0-2.54,1.53-4.32,5.6-5.09,11.7-1.78,12.46-2.8,12.72-8.9.51-24.93.51-48.33.51-70.96v-19.33c-5.09,0-10.17,0-15.01.25-4.32.25-6.87-2.8-6.87-6.36,0-3.81,2.54-6.61,6.87-6.61,4.83.25,9.67.51,14.75.51,0-5.34-.25-10.17-.25-14.24-.51-36.12,15.77-58.75,48.07-58.75,18.06,0,31.03,9.16,31.03,19.08,0,5.6-3.56,9.92-9.67,9.92-11.7,0-9.92-16.02-25.94-16.02s-23.4,16.79-23.4,38.66c0,5.85.25,13.48.25,21.37,7.63,0,15.01,0,21.87-.51,4.58-.25,6.87,2.8,6.87,6.61,0,3.56-2.29,6.61-6.87,6.36-6.87-.25-13.99-.25-21.62-.25.25,6.87.25,13.48.25,19.33,0,22.64,0,46.04.25,70.96.25,6.1,1.27,7.38,16.53,8.9,5.09.51,6.61,2.54,6.61,5.09,0,2.29-1.78,4.32-5.09,4.32-7.38,0-19.84-.76-28.49-.76s-16.79.76-23.91.76c-3.56,0-5.09-2.03-5.09-4.32Z" style="fill:#002676;"/><path d="M2657.11,140.09c0-37.39,24.93-63.84,56.97-63.84s55.96,25.43,55.96,62.57-25.18,63.84-56.97,63.84-55.96-25.18-55.96-62.57ZM2748.68,144.16c0-36.37-17.55-55.96-37.14-55.96s-33.07,18.57-33.07,46.29c0,36.37,17.55,55.96,36.88,55.96s33.32-18.57,33.32-46.29Z" style="fill:#002676;"/><path d="M2778.69,195.8c0-2.54,1.53-4.32,5.6-5.09,11.7-1.78,12.46-2.8,12.72-8.9.51-13.73.51-25.69.51-42.48,0-13.73-.25-26.2-.51-38.92-.25-6.1-1.27-7.12-14.24-9.41-4.58-.76-5.85-2.8-5.85-5.09,0-2.54,1.53-4.07,5.34-4.58,8.9-.51,20.09-2.8,31.29-5.85,2.8-.76,4.83.51,4.83,3.56-.25,10.43-.25,19.33-.25,26.96,13.74-21.11,23.91-29.5,35.1-29.5,6.1,0,11.45,1.53,17.04,5.09,2.29,1.78,2.8,3.56,1.78,6.1-2.03,4.83-4.58,9.92-7.38,14.5-.51,1.27-1.27,1.78-2.54,1.78-3.56,0-8.14-8.39-16.79-8.39-7.12,0-13.48,3.56-27.47,21.87v21.87c0,16.79,0,28.74.25,42.48.25,6.1,1.27,7.38,16.53,8.9,5.09.51,6.61,2.54,6.61,5.09,0,2.29-1.78,4.32-5.09,4.32-7.38,0-19.84-.76-28.49-.76s-16.79.76-23.91.76c-3.56,0-5.09-2.03-5.09-4.32Z" style="fill:#002676;"/><path d="M2878.39,195.8c0-2.54,1.53-4.58,5.6-5.09,11.7-1.78,12.46-2.8,12.72-8.9.51-13.73.51-25.69.51-42.48,0-13.73-.25-26.2-.51-38.92-.25-6.1-1.27-7.12-14.24-9.41-4.58-.76-5.85-2.8-5.85-5.09,0-2.54,1.53-4.07,5.34-4.58,8.9-.51,20.09-2.8,31.29-5.85,2.8-.76,4.83.51,4.83,3.56,0,6.61-.25,12.72-.25,18.31,11.7-12.46,25.18-21.11,39.17-21.11,15.26,0,26.71,7.88,31.03,22.89,12.21-13.23,26.2-22.89,40.95-22.89,19.58,0,33.57,13.23,32.81,37.9-.25,10.17-.25,17.3-.25,25.18,0,16.79,0,28.74.25,42.48.25,6.1,1.02,7.12,12.72,8.9,4.32.51,5.85,2.54,5.85,5.09,0,2.29-1.78,4.32-5.09,4.32-7.38,0-15.26-.76-23.91-.76s-16.28.76-23.65.76c-3.31,0-4.83-2.03-4.83-4.32,0-2.54,1.27-4.58,5.34-5.09,11.45-1.78,12.21-2.8,12.46-8.9.51-13.73.51-25.69.51-42.48,0-7.63,0-14.5-.25-24.16-.51-13.23-5.85-23.15-21.37-23.15-10.17,0-21.37,6.87-30.01,15.77.25,2.03.25,4.07.25,6.36-.25,10.17-.25,17.3-.25,25.18,0,16.79,0,28.74.25,42.48.25,6.1,1.02,7.12,12.72,8.9,3.82.51,5.34,2.54,5.34,5.09,0,2.29-1.78,4.32-5.09,4.32-7.12,0-15.01-.76-23.4-.76s-16.28.76-23.65.76c-3.31,0-5.09-2.03-5.09-4.32,0-2.54,1.53-4.58,5.6-5.09,11.45-1.78,12.21-2.8,12.46-8.9.51-13.73.51-25.69.51-42.48,0-7.63,0-14.5-.25-24.16-.51-13.23-5.85-23.15-21.37-23.15-10.17,0-21.37,6.87-30.01,15.77v31.54c0,16.79,0,28.74.25,42.48.25,6.1,1.02,7.12,12.72,8.9,3.82.51,5.34,2.54,5.34,5.09,0,2.29-1.78,4.32-5.09,4.32-7.12,0-15.01-.76-23.4-.76s-16.79.76-23.91.76c-3.56,0-5.09-2.03-5.09-4.32Z" style="fill:#002676;"/><path d="M3093.06,175.7c0-23.91,27.72-35.86,67.4-45.53,0-5.6.25-11.45.51-17.55.51-16.02-7.63-23.91-19.33-23.91-15.77,0-27.98,8.14-27.98,16.79,0,2.54.51,5.09.51,7.38,0,5.09-4.58,10.68-11.7,10.68-5.85,0-10.94-3.31-10.94-11.7,0-13.73,21.62-35.35,53.41-35.35,18.82,0,37.39,8.14,36.37,34.34-.76,19.08-.76,34.59-.51,48.58.25,17.04,5.34,24.93,14.75,30.27,3.05,1.78,3.31,4.58,0,7.12-2.8,1.78-6.36,4.32-9.16,5.85-4.32,2.29-5.6,2.03-8.39.25-6.1-3.82-11.96-11.19-15.01-23.65-7.63,9.67-23.4,23.65-39.93,23.65-19.33,0-30.01-11.19-30.01-27.22ZM3131.46,187.15c8.65,0,20.6-6.1,30.01-15.77-.51-3.31-.76-6.87-.76-10.68-.25-6.61-.25-13.73-.25-20.6-28.49,6.87-46.55,16.53-46.55,31.54,0,10.43,7.12,15.52,17.55,15.52Z" style="fill:#002676;"/><path d="M3218.45,171.89c.25-27.47.25-53.16,0-80.12h-12.97c-3.05,0-5.09-1.53-5.09-4.32,0-1.78.76-3.05,4.58-5.34,7.88-4.58,17.3-12.72,26.2-25.69,3.05-3.82,8.14-3.05,8.14,2.03,0,6.61-.25,13.48-.25,20.6,11.19.25,21.87.25,31.79-.25,4.58-.25,6.87,2.8,6.87,6.61,0,3.56-2.29,6.61-6.87,6.36-9.92-.25-20.6-.25-31.79,0-.25,27.72,0,55.7,0,76.3,0,11.7,4.83,18.82,15.77,18.82,5.09,0,9.41-1.27,14.24-3.56,2.29-1.02,3.56-1.53,4.83-1.53,3.31,0,5.34,4.32,2.04,7.38-7.38,7.63-17.55,12.97-29.25,12.97-19.08,0-28.74-10.43-28.23-30.27Z" style="fill:#002676;"/><path d="M3282.04,195.8c0-2.54,1.53-4.32,5.6-5.09,11.7-1.78,12.46-2.8,12.72-8.9.51-13.73.51-25.69.51-42.48,0-13.73-.25-26.2-.51-38.92-.25-6.1-1.27-7.12-14.24-9.41-4.58-.76-5.85-2.8-5.85-5.09,0-2.54,1.53-4.07,5.34-4.58,8.9-.51,20.35-2.8,31.54-5.85,2.54-.76,4.83.51,4.83,3.56-.76,33.83-.76,46.55-.76,60.28,0,16.79,0,28.74.25,42.48.25,6.1,1.02,7.12,12.72,8.9,4.32.76,5.85,2.54,5.85,5.09,0,2.29-1.78,4.32-5.09,4.32-7.38,0-15.26-.76-23.91-.76s-16.79.76-23.91.76c-3.56,0-5.09-2.03-5.09-4.32ZM3295.26,38.86c0-7.88,6.1-15.26,15.01-15.26,8.39,0,15.01,6.1,15.01,15.26,0,7.63-6.1,15.01-15.01,15.01-8.39,0-15.01-6.1-15.01-15.01Z" style="fill:#002676;"/><path d="M3347.66,140.09c0-37.39,24.93-63.84,56.97-63.84s55.96,25.43,55.96,62.57-25.18,63.84-56.97,63.84-55.96-25.18-55.96-62.57ZM3439.22,144.16c0-36.37-17.55-55.96-37.14-55.96s-33.07,18.57-33.07,46.29c0,36.37,17.55,55.96,36.88,55.96s33.32-18.57,33.32-46.29Z" style="fill:#002676;"/><path d="M3469.23,195.8c0-2.54,1.53-4.58,5.6-5.09,11.7-1.78,12.46-2.8,12.72-8.9.51-13.73.51-25.69.51-42.48,0-13.73-.25-26.2-.51-38.92-.25-6.1-1.27-7.12-14.24-9.41-4.58-.76-5.85-2.8-5.85-5.09,0-2.54,1.53-4.07,5.34-4.58,8.9-.51,20.09-2.8,31.29-5.85,2.8-.76,4.83.51,4.83,3.56,0,6.61-.25,12.72-.25,18.31,11.96-12.72,26.2-21.11,40.7-21.11,19.58,0,33.83,13.23,33.32,37.9-.25,10.17-.25,17.3-.25,25.18,0,16.79,0,28.74.25,42.48.25,6.1,1.02,7.12,12.72,8.9,4.32.51,5.85,2.54,5.85,5.09,0,2.29-1.78,4.32-5.09,4.32-7.38,0-15.52-.76-23.91-.76s-16.53.76-23.65.76c-3.31,0-5.09-2.03-5.09-4.32,0-2.54,1.53-4.58,5.34-5.09,11.7-1.78,12.46-2.8,12.72-8.9.25-13.73.25-25.69.25-42.48,0-7.63,0-14.5-.25-24.16-.25-13.23-5.85-23.15-22.13-23.15-10.43,0-22.13,6.87-31.03,15.77v31.54c0,16.79,0,28.74.25,42.48.25,6.1,1.02,7.12,12.72,8.9,3.82.51,5.34,2.54,5.34,5.09,0,2.29-1.53,4.32-5.09,4.32-7.12,0-15.01-.76-23.4-.76s-16.79.76-23.91.76c-3.56,0-5.09-2.03-5.09-4.32Z" style="fill:#002676;"/></g><g id="e"><path d="M1247.46,255.07c12.99,0,25.19-9.61,49.61-60.78,16.62-36.36,29.09-68.57,42.08-101.55,4.16-10.65,6.23-12.73,12.73-14.54,4.68-1.3,6.49-3.12,6.49-5.97,0-2.6-1.56-4.93-5.45-4.93-5.71,0-12.47.78-20.26.78s-14.02-.78-20-.78c-3.64,0-5.45,2.08-5.45,4.68,0,2.86,1.82,4.68,5.97,5.97,11.43,3.12,12.47,8.05,8.05,21.56-7.01,21.3-14.8,41.82-26.75,69.09-10.13-25.19-18.7-47.79-27.27-73.24-3.12-9.87-2.08-14.03,10.13-17.4,4.68-1.3,6.23-2.86,6.23-5.71s-2.08-4.93-5.71-4.93c-7.79,0-15.84.78-26.49.78-11.43,0-19.74-.78-27.79-.78-3.9,0-5.71,2.34-5.71,4.93,0,3.12,1.56,4.68,6.23,5.97,5.97,1.56,7.79,3.64,11.43,12.99,14.28,35.58,27.01,67.01,43.63,109.61-11.17,20.52-19.48,25.19-30.65,27.27-9.09,1.56-15.06,7.27-15.06,14.54,0,5.97,4.16,12.47,14.02,12.47M1166.42,77.68c16.62,0,24.15,15.06,24.15,21.04,0,2.08-1.04,3.64-3.38,4.16-14.02,3.64-30.91,7.01-48.57,10.13,3.12-23.64,14.8-35.32,27.79-35.32M1168.24,194.55c22.6,0,38.18-11.17,47.53-22.34,4.16-4.93,1.56-9.35-2.6-9.35-1.04,0-2.08.52-3.12,1.04-10.91,6.75-19.48,10.39-31.17,10.39-25.71,0-41.04-22.6-41.04-48.31v-.52c25.45-3.64,50.39-8.57,76.1-14.55,3.38-.78,5.71-3.38,4.93-7.27-4.16-18.7-21.3-39.22-50.91-39.22s-56.88,27.53-56.88,67.27c0,37.4,24.15,62.85,57.14,62.85M1046.95,192.48c8.57,0,17.66-.78,28.05-.78s20,.78,28.57.78c3.9,0,5.71-2.34,5.71-4.93,0-2.86-1.82-5.45-6.23-5.97-11.69-1.3-13.77-2.6-13.77-8.05-.52-25.19-.52-48.83-.52-72.2,0-21.56,0-45.19.78-97.66,0-3.38-2.08-4.16-4.93-3.38-13.51,3.38-26.49,5.45-37.14,6.49-4.42.26-6.23,2.34-6.23,4.93,0,2.86,1.82,4.93,6.75,5.71,11.43,2.08,12.73,3.38,12.99,9.35.52,26.23.52,50.91.52,74.54s0,47.01-.52,72.2c-.26,5.45-1.82,6.49-13.51,8.05-4.68.52-6.23,3.12-6.23,5.97,0,2.6,1.82,4.93,5.71,4.93M988.25,77.68c16.62,0,24.15,15.06,24.15,21.04,0,2.08-1.04,3.64-3.38,4.16-14.03,3.64-30.91,7.01-48.57,10.13,3.12-23.64,14.8-35.32,27.79-35.32M990.07,194.55c22.6,0,38.18-11.17,47.53-22.34,4.16-4.93,1.56-9.35-2.6-9.35-1.04,0-2.08.52-3.12,1.04-10.91,6.75-19.48,10.39-31.17,10.39-25.71,0-41.04-22.6-41.04-48.31v-.52c25.45-3.64,50.39-8.57,76.1-14.55,3.38-.78,5.71-3.38,4.93-7.27-4.16-18.7-21.3-39.22-50.91-39.22s-56.88,27.53-56.88,67.27c0,37.4,24.15,62.85,57.14,62.85M802.55,192.48c8.57,0,17.14-.78,27.53-.78s19.22.78,27.79.78c3.9,0,5.71-2.34,5.71-4.93,0-2.86-1.56-4.93-6.23-5.97-11.69-1.82-12.99-2.6-12.99-8.05-.26-8.31-.26-16.62-.26-24.67,5.71-3.64,11.43-7.53,16.88-11.43,10.91,16.36,22.08,33.25,32.99,48.83,3.38,4.93,5.19,5.97,10.65,5.97,7.79,0,17.4-.26,28.57,0,3.9,0,5.97-2.34,5.97-5.19,0-2.6-1.04-4.93-6.49-5.45-7.27-.78-11.17-4.42-17.4-12.47-10.91-14.8-22.34-31.69-32.99-48.05,0-.26.26-.26.52-.52,20-17.4,33.25-30.65,43.12-43.63,1.3-1.82,2.08-3.38,2.08-4.93,0-3.12-2.08-5.19-6.23-4.94-12.21,1.04-23.38,1.04-37.14.26-5.45-.26-7.01,2.34-7.01,4.93,0,2.34,1.82,4.93,5.45,5.71l5.19,1.3c8.57,2.08,8.57,9.09-2.08,20.26-11.43,12.21-26.23,23.89-42.34,34.02v-32.21c0-21.56,0-45.19.78-97.66,0-3.38-2.08-4.16-4.93-3.38-13.51,3.38-26.49,5.45-37.14,6.49-4.41.26-6.23,2.34-6.23,4.93,0,2.86,1.82,4.93,6.75,5.71,11.43,2.08,12.73,3.38,12.99,9.35.52,26.23.52,50.91.52,74.54s0,47.01-.52,72.2c-.26,5.45-1.3,6.23-12.99,8.05-4.67,1.04-6.23,3.12-6.23,5.97,0,2.6,1.82,4.93,5.71,4.93M706.19,192.48c8.31,0,17.14-.78,27.27-.78s21.82.78,30.13.78c3.64,0,5.45-2.34,5.45-4.93,0-2.86-1.56-5.19-6.75-5.97-13.25-1.56-14.54-2.86-14.8-8.31-.52-14.29-.52-27.01-.52-43.63v-21.82c13.51-17.92,19.74-21.56,26.49-21.56,8.05,0,14.8,10.13,18.18,10.13,1.82,0,2.86-.52,4.16-3.12,2.6-5.19,5.19-10.39,7.79-15.84,1.56-3.38.78-5.19-2.34-7.27-6.23-4.16-12.73-7.01-19.22-7.01-11.43,0-21.82,9.61-34.8,30.91,0-8.57.26-17.92.52-28.31,0-3.38-2.08-4.16-4.93-3.38-13.51,3.64-26.23,5.71-37.14,6.49-4.41.52-5.97,2.34-5.97,5.19s1.56,4.93,6.49,5.71c11.43,2.08,12.73,3.38,12.99,9.09.52,12.99.52,26.75.52,40.78,0,16.62,0,29.35-.52,43.63-.26,5.45-1.04,6.75-12.47,8.31-4.67,1.04-6.23,3.12-6.23,5.97,0,2.6,1.82,4.93,5.71,4.93M643.08,77.68c16.62,0,24.15,15.06,24.15,21.04,0,2.08-1.04,3.64-3.38,4.16-14.03,3.64-30.91,7.01-48.57,10.13,3.12-23.64,14.8-35.32,27.79-35.32M644.9,194.55c22.6,0,38.18-11.17,47.53-22.34,4.16-4.93,1.56-9.35-2.6-9.35-1.04,0-2.08.52-3.12,1.04-10.91,6.75-19.48,10.39-31.17,10.39-25.71,0-41.04-22.6-41.04-48.31v-.52c25.45-3.64,50.39-8.57,76.1-14.55,3.38-.78,5.71-3.38,4.93-7.27-4.16-18.7-21.3-39.22-50.91-39.22s-56.88,27.53-56.88,67.27c0,37.4,24.15,62.85,57.14,62.85M486.46,178.19c-7.79-1.82-10.39-4.42-10.65-13.77-.52-19.74-.52-35.06-.52-63.11v-.52c44.15-1.04,67.27,8.83,67.27,41.04,0,18.96-13.51,37.92-40.78,37.92-7.01,0-11.43-.52-15.32-1.56M475.81,33.52c0-5.19,1.3-7.27,5.19-8.83,3.12-1.04,7.79-1.56,15.06-1.56,21.56,0,34.8,11.69,34.8,34.54,0,12.73-4.16,23.38-10.91,31.43-13.25-2.34-28.31-3.12-44.67-2.34,0-20.52,0-35.32.52-53.24M505.94,194.03c43.11,0,68.83-25.19,68.83-54.54,0-23.12-14.02-37.92-37.14-45.97,12.99-7.79,24.16-22.08,24.16-39.22,0-27.79-23.12-44.93-63.63-44.93-17.4,0-21.56,1.56-37.92,1.56s-27.27-1.3-34.02-1.3c-4.16,0-6.23,2.34-6.23,5.71,0,2.86,1.56,5.19,7.01,6.23,14.02,2.08,17.4,4.93,17.4,11.95.26,22.08.52,38.7.52,67.79s0,46.23-.52,68.31c-.26,7.53-2.86,9.61-16.88,10.91-5.45.78-7.01,3.38-7.01,6.23,0,3.38,2.08,5.71,6.23,5.71,10.13,0,19.74-.52,33.5-.52,12.99,0,24.93,2.08,45.71,2.08M294.79,195.59c22.08,0,42.6-6.23,62.08-18.96,5.45-3.38,7.01-7.01,7.01-10.65,0-7.01.52-13.51.26-19.22-.26-4.42-2.34-7.01-5.97-7.01-2.86,0-4.93,1.82-5.97,5.71-6.75,22.6-27.01,34.8-52.72,34.8-37.92,0-66.49-31.43-66.49-78.96s27.01-79.48,67.01-79.48c25.97,0,41.56,9.61,50.13,29.87,1.82,4.16,3.38,6.23,6.75,6.23,3.64,0,5.19-2.6,5.45-6.75.26-5.97.26-15.32.26-21.04,0-3.9-1.3-7.01-7.01-10.13-13.77-7.53-32.99-12.99-53.5-12.99-60.78,0-102.33,41.82-102.33,97.14s38.96,91.42,95.06,91.42M97.4,195.59c44.93,0,74.54-27.79,74.54-76.88v-17.4c0-29.35,0-46.49.26-70.13.26-5.45,2.86-7.79,17.14-9.09,4.93-.78,6.49-3.38,6.49-6.23,0-3.38-2.08-5.71-5.97-5.71-8.31,0-16.36.78-26.75.78s-18.96-.78-27.53-.78c-3.9,0-5.97,2.34-5.97,5.71,0,2.6,1.56,5.19,6.75,5.97,15.06,1.56,17.66,3.9,17.66,9.35.52,23.64.52,40.78.52,70.13v15.32c0,38.44-18.96,57.92-50.65,57.92s-49.35-20.26-49.35-56.1v-17.14c0-29.35,0-46.49.52-70.13,0-5.45,2.6-7.79,16.88-9.09,5.19-.78,6.75-3.38,6.75-6.23,0-3.38-2.08-5.71-6.23-5.71-9.87,0-19.74.78-33.25.78s-23.12-.78-33.24-.78c-3.9,0-5.97,2.34-5.97,5.71,0,2.86,1.56,5.45,6.75,6.23,14.28,1.3,16.88,3.64,16.88,9.09.52,23.64.52,40.78.52,70.13v20.52c0,48.57,28.05,73.76,73.24,73.76" style="fill:#002676;"/></g></g></svg>